<?xml version="1.0" encoding="utf-8"?>
<svg version="1.1" xmlns="http://www.w3.org/2000/svg" xmlns:xlink="http://www.w3.org/1999/xlink" viewBox="0 0 1000 1000">
<defs>
	<!-- clipPath с rx=223 = 22.3% от 1000 — точно совпадает с CSS border-radius: 22.3% -->
	<clipPath id="rutube-clip">
		<rect width="1000" height="1000" rx="223" ry="223"/>
	</clipPath>
</defs>
<g clip-path="url(#rutube-clip)">
	<rect width="1000" height="1000" fill="#100943"/>
	<path fill="#ED143B" d="M1000,0H500c0,276.1,223.9,500,500,500V0z"/>
	<path fill="#FFFFFF" d="M617.7,477.2H322.3V360.3h295.4c17.3,0,29.3,3,35.3,8.3c6,5.3,9.8,15,9.8,29.2v42c0,15-3.7,24.7-9.8,30
		C647,475,635,477.2,617.7,477.2L617.7,477.2z M638,250H197v500h125.3V587.3h230.9L662.7,750H803L682.2,586.6
		c44.5-6.6,64.5-20.3,81-42.7c16.5-22.5,24.8-58.5,24.8-106.4v-37.5c0-28.5-3-51-8.3-68.2c-5.3-17.2-14.2-32.2-27-45.7
		c-13.5-12.8-28.5-21.7-46.5-27.7C688.2,253,665.7,250,638,250L638,250z"/>
</g>
</svg>
